<?xml version="1.0" encoding="UTF-8"?>
<!DOCTYPE svg PUBLIC "-//W3C//DTD SVG 1.1//EN" "http://www.w3.org/Graphics/SVG/1.1/DTD/svg11.dtd">
<!-- Creator: CorelDRAW X7 -->
<svg xmlns="http://www.w3.org/2000/svg" xml:space="preserve" width="2352px" height="2548px" version="1.1" style="shape-rendering:geometricPrecision; text-rendering:geometricPrecision; image-rendering:optimizeQuality; fill-rule:evenodd; clip-rule:evenodd"
viewBox="0 0 2352 2548"
 xmlns:xlink="http://www.w3.org/1999/xlink">
 <defs>
  <style type="text/css">
   <![CDATA[
    .fil0 {fill:white}
   ]]>
  </style>
 </defs>
 <g id="Layer_x0020_1">
  <metadata id="CorelCorpID_0Corel-Layer"/>
  <path class="fil0" d="M2189 2548l-588 0c-91,0 -164,-73 -164,-163l0 -588c0,-73 -58,-131 -130,-131l-262 0c-72,0 -130,58 -130,131l0 588c0,90 -73,163 -164,163l-588 0c-90,0 -163,-73 -163,-163l0 -1247c0,-151 69,-292 187,-385l928 -732c36,-28 86,-28 122,0l928 732c118,93 187,234 187,385l0 1247c0,90 -73,163 -163,163z"/>
 </g>
</svg>
